<?xml version="1.0" standalone="no"?>
<!DOCTYPE svg PUBLIC "-//W3C//DTD SVG 20010904//EN"
 "http://www.w3.org/TR/2001/REC-SVG-20010904/DTD/svg10.dtd">
<svg version="1.0" xmlns="http://www.w3.org/2000/svg"
 width="700.000000pt" height="700.000000pt" viewBox="0 0 700.000000 700.000000"
 preserveAspectRatio="xMidYMid meet">
<metadata>
Created by potrace 1.11, written by Peter Selinger 2001-2013
</metadata>
<g transform="translate(0.000000,700.000000) scale(0.100000,-0.100000)"
fill="#000000" stroke="none">
<path d="M2425 6789 c-180 -13 -321 -104 -395 -254 -46 -93 -56 -145 -55 -307
l0 -148 -30 0 c-16 -1 -163 -1 -325 -2 -350 -1 -419 -12 -585 -95 -247 -122
-429 -380 -462 -653 -4 -30 -7 -1025 -7 -2210 0 -2318 -2 -2195 47 -2335 75
-212 230 -386 432 -487 59 -30 156 -64 205 -72 19 -3 46 -8 60 -11 14 -3 1001
-5 2193 -5 2345 0 2233 -2 2371 51 113 44 264 143 321 211 97 113 137 176 179
282 63 157 59 3 60 2356 1 1180 -2 2172 -6 2205 -11 95 -17 121 -42 188 -86
228 -233 390 -447 494 -147 70 -221 80 -602 81 -165 0 -302 3 -305 6 -3 3 -6
75 -7 158 -2 161 -11 211 -51 291 -68 133 -200 229 -349 254 -45 8 -2096 9
-2200 2z"/>
</g>
</svg>
